<svg width="24" height="24" viewBox="0 0 24 24" fill="none" xmlns="http://www.w3.org/2000/svg">
<path d="M16 22H8V20H16V22Z" fill="black"/>
<path d="M8 20H6V18H8V20Z" fill="black"/>
<path d="M18 20H16V18H18V20Z" fill="black"/>
<path d="M6 18H4V16H6V18Z" fill="black"/>
<path d="M20 18H18V16H20V18Z" fill="black"/>
<path d="M4 14V16H2V14H4Z" fill="black"/>
<path d="M22 16H20V8H22V16Z" fill="black"/>
<path d="M4 4H8V8H10V10H2V2H4V4Z" fill="black"/>
<path d="M20 8H18V6H20V8Z" fill="black"/>
<path d="M18 6H16V4H18V6Z" fill="black"/>
<path d="M16 4H8V2H16V4Z" fill="black"/>
</svg>
