<svg width="24" height="24" viewBox="0 0 24 24" fill="none" xmlns="http://www.w3.org/2000/svg">
<path d="M14 23H10V21H14V23Z" fill="black"/>
<path d="M10 21H8V19H10V21Z" fill="black"/>
<path d="M16 21H14V19H16V21Z" fill="black"/>
<path d="M8 19H6V17H8V19Z" fill="black"/>
<path d="M18 19H16V17H18V19Z" fill="black"/>
<path d="M6 17H4V15H6V17Z" fill="black"/>
<path d="M20 17H18V15H20V17Z" fill="black"/>
<path d="M4 15H2V13H4V15Z" fill="black"/>
<path d="M22 15H20V13H22V15Z" fill="black"/>
<path d="M0 5H2V13H0V5Z" fill="black"/>
<path d="M24 13H22V5H24V13Z" fill="black"/>
<path d="M6 11H4V7H6V11Z" fill="black"/>
<path d="M8 7H6V5H8V7Z" fill="black"/>
<path d="M4 5H2V3H4V5Z" fill="black"/>
<path d="M14 5H10V3H14V5Z" fill="black"/>
<path d="M22 5H20V3H22V5Z" fill="black"/>
<path d="M10 3H4V1H10V3Z" fill="black"/>
<path d="M20 3H14V1H20V3Z" fill="black"/>
</svg>
