<svg width="24" height="24" viewBox="0 0 24 24" fill="none" xmlns="http://www.w3.org/2000/svg">
<path d="M16 22H8V20H16V22Z" fill="black"/>
<path d="M15 16H13V18H11V16H9V14H15V16Z" fill="black"/>
<path d="M9 14H7V12H9V14Z" fill="black"/>
<path d="M17 14H15V12H17V14Z" fill="black"/>
<path d="M7 12H5V6H7V12Z" fill="black"/>
<path d="M19 12H17V6H19V12Z" fill="black"/>
<path d="M14 11H10V7H14V11Z" fill="black"/>
<path d="M9 6H7V4H9V6Z" fill="black"/>
<path d="M17 6H15V4H17V6Z" fill="black"/>
<path d="M15 4H9V2H15V4Z" fill="black"/>
</svg>
