<svg width="24" height="24" viewBox="0 0 24 24" fill="none" xmlns="http://www.w3.org/2000/svg">
<path d="M9 21H13V23H7V17H9V21Z" fill="black"/>
<path d="M15 21H13V19H15V21Z" fill="black"/>
<path d="M17 19H15V17H17V19Z" fill="black"/>
<path d="M11 17H9V15H11V17Z" fill="black"/>
<path d="M19 17H17V15H19V17Z" fill="black"/>
<path d="M13 15H11V13H13V15Z" fill="black"/>
<path d="M21 15H19V11H15V9H21V15Z" fill="black"/>
<path d="M11 13H5V11H11V13Z" fill="black"/>
<path d="M5 11H3V7H5V11Z" fill="black"/>
<path d="M15 9H13V7H15V9Z" fill="black"/>
<path d="M7 7H5V5H7V7Z" fill="black"/>
<path d="M17 7H15V5H17V7Z" fill="black"/>
<path d="M9 5H7V3H9V5Z" fill="black"/>
<path d="M19 5H17V3H9V1H19V5Z" fill="black"/>
</svg>
