<svg width="12" height="12" viewBox="0 0 12 12" fill="none" xmlns="http://www.w3.org/2000/svg">
<path d="M12 3H11V4H10V5H9V6H8V7H7V8H6V9H5V10H4V11H3V12H1V11H2V10H3V9H4V8H5V7H6V6H7V5H8V4H9V3H10V2H11V1H12V3ZM12 7H11V8H10V9H9V10H8V11H7V12H5V11H6V10H7V9H8V8H9V7H10V6H11V5H12V7ZM12 11H11V12H9V11H10V10H11V9H12V11Z" fill="#999999"/>
<path d="M1 12H0V11H1V12ZM5 12H4V11H5V12ZM9 12H8V11H9V12ZM2 11H1V10H2V11ZM6 11H5V10H6V11ZM10 11H9V10H10V11ZM3 10H2V9H3V10ZM7 10H6V9H7V10ZM11 10H10V9H11V10ZM4 9H3V8H4V9ZM8 9H7V8H8V9ZM12 9H11V8H12V9ZM5 8H4V7H5V8ZM9 8H8V7H9V8ZM6 7H5V6H6V7ZM10 7H9V6H10V7ZM7 6H6V5H7V6ZM11 6H10V5H11V6ZM8 5H7V4H8V5ZM12 5H11V4H12V5ZM9 4H8V3H9V4ZM10 3H9V2H10V3ZM11 2H10V1H11V2ZM12 1H11V0H12V1Z" fill="white"/>
</svg>
